PathFileType	4	(X/Y/Z)	C:\Users\IEUser\Desktop\02761_POST\experimental_data\task.trc
DataRate	CameraRate	NumFrames	NumMarkers	Units	OrigDataRate	OrigDataStartFrame	OrigNumFrames
100.000000	100.000000	4	51	mm	100.000000	90	361
Frame#	Time	C7			CLAV			LANK			LASI			LBHD			LELB			LFHD			LFIN			LFMH			LHEE			LKNE			LMED			LMET			LMIF			LPSI			LSHO			LTAD			LTHAP			LTHI			LTIAD			LTIB			LTOE			LTTU			LWRA			LWRB			RANK			RASI			RBAK			RBHD			RELB			RFHD			RFIN			RFMH			RHEE			RKNE			RMED			RMET			RMIF			RPSI			RSHO			RTAD			RTHAP			RTHI			RTIAD			RTIB			RTOE			RTTU			RWRA			RWRB			STRN			T10			
		X1	Y1	Z1	X2	Y2	Z2	X3	Y3	Z3	X4	Y4	Z4	X5	Y5	Z5	X6	Y6	Z6	X7	Y7	Z7	X8	Y8	Z8	X9	Y9	Z9	X10	Y10	Z10	X11	Y11	Z11	X12	Y12	Z12	X13	Y13	Z13	X14	Y14	Z14	X15	Y15	Z15	X16	Y16	Z16	X17	Y17	Z17	X18	Y18	Z18	X19	Y19	Z19	X20	Y20	Z20	X21	Y21	Z21	X22	Y22	Z22	X23	Y23	Z23	X24	Y24	Z24	X25	Y25	Z25	X26	Y26	Z26	X27	Y27	Z27	X28	Y28	Z28	X29	Y29	Z29	X30	Y30	Z30	X31	Y31	Z31	X32	Y32	Z32	X33	Y33	Z33	X34	Y34	Z34	X35	Y35	Z35	X36	Y36	Z36	X37	Y37	Z37	X38	Y38	Z38	X39	Y39	Z39	X40	Y40	Z40	X41	Y41	Z41	X42	Y42	Z42	X43	Y43	Z43	X44	Y44	Z44	X45	Y45	Z45	X46	Y46	Z46	X47	Y47	Z47	X48	Y48	Z48	X49	Y49	Z49	X50	Y50	Z50	X51	Y51	Z51	

91	0.9	-1229.25732421875	1311.788208007813	-248.6090698242188	-1125.373413085938	1230.246337890625	-255.7796783447266	-1293.1318359375	115.3768081665039	-365.7913513183594	-1194.875244140625	855.3684082031252	-373.3327941894532	-1210.3759765625	1447.892578125	-311.2286071777344	-1270.477783203125	1001.6865234375	-502.279266357422	-1084.065795898438	1471.350463867188	-292.1790161132813	-1157.125610351563	751.0192260742189	-609.5808715820314	-1176.7138671875	51.42880630493165	-335.6559448242188	-1333.682739257813	110.2862777709961	-312.4873962402344	-1112.138061523438	471.7581176757814	-403.1406555175782	-1255.818481445313	114.3457870483399	-298.3005676269532	-1218.841918945313	49.07473754882814	-404.1927185058595	-1216.501831054688	103.1581192016602	-361.0641174316407	-1334.865112304688	908.3569335937502	-299.9061279296876	-1225.40234375	1268.236083984375	-391.9532775878907	-1076.369750976563	625.6514892578126	-363.4507141113282	-1107.2275390625	687.8818969726564	-359.2047729492188	-1168.292236328125	573.4778442382814	-460.2146606445314	-1197.237426757813	197.5097198486329	-364.7553405761719	-1196.431762695313	297.5233764648438	-441.2387695312501	-1193.183837890625	61.66989517211915	-376.6320495605469	-1079.81640625	389.0576171875001	-369.9183959960938	-1156.491943359375	788.0780029296877	-556.4060668945314	-1212.258544921875	781.2935791015627	-593.9106445312501	-1362.573486328125	66.7028274536133	-213.7311553955079	-1177.984252929688	850.6245727539065	-166.956283569336	-1254.18896484375	1172.10107421875	-135.084228515625	-1229.839233398438	1426.486938476563	-186.0490875244141	-1170.224975585938	988.9050903320315	-43.50753402709962	-1073.716796875	1459.199951171875	-179.2907867431641	-1070.492065429688	719.8350830078126	-26.30206680297852	-1234.430053710938	36.85295867919923	-267.8197631835938	-1406.208374023438	63.50122070312501	-260.7557373046876	-1201.774047851563	435.2262573242189	-188.9931335449219	-1335.281860351563	75.96423339843751	-289.1838989257813	-1267.813354492188	30.48108100891114	-185.8921051025391	-1285.273559570313	74.35733795166017	-237.4399871826172	-1325.220336914063	914.979675292969	-209.5301513671876	-1176.007202148438	1270.706298828125	-102.6753692626953	-1155.881958007813	562.2853393554689	-256.7746276855469	-1160.114013671875	683.2918090820314	-230.4650421142579	-1194.13916015625	554.6196289062501	-121.4373016357422	-1247.636962890625	231.881576538086	-250.9641876220704	-1288.366333007813	242.2906341552735	-153.3699493408203	-1244.053466796875	42.65525436401368	-222.9599761962891	-1190.913696289063	354.5791931152344	-247.6394805908204	-1077.02099609375	776.874206542969	-72.84466552734376	-1106.929321289063	767.7999877929689	-18.16049575805664	-1107.59326171875	1042.210327148438	-270.2201538085938	-1296.587158203125	1006.0732421875	-254.2661743164063	
92	0.91	-1218.65673828125	1312.77783203125	-249.1650848388672	-1115.209350585938	1230.933715820313	-256.5718078613282	-1259.010864257813	106.6122589111328	-368.9622802734376	-1185.65966796875	856.9282226562502	-374.1449279785157	-1199.007568359375	1448.436767578125	-312.5773925781251	-1264.383544921875	1004.329895019531	-504.494110107422	-1072.722290039063	1471.588745117188	-293.1975708007813	-1155.160888671875	753.5944824218751	-615.8759765625001	-1137.97119140625	51.41010665893556	-338.7702331542969	-1299.872436523438	98.34395599365237	-315.9755554199219	-1099.37109375	474.894500732422	-403.105682373047	-1222.065185546875	107.7595977783203	-301.1027526855469	-1180.022705078125	46.25419998168946	-407.3707275390626	-1181.784545898438	99.70457458496097	-363.8079833984376	-1325.832885742188	909.6399536132815	-300.7195434570313	-1215.704345703125	1268.984375	-392.3083496093751	-1065.95703125	629.4869995117189	-362.7548522949219	-1097.361328125	691.2948608398439	-359.1502380371094	-1155.228149414063	576.4599609375001	-460.9483337402345	-1168.493530273438	194.6717071533204	-366.3620910644532	-1173.806762695313	294.8948059082032	-442.6751098632814	-1155.4375	60.33093261718751	-379.5881958007813	-1063.734375	392.992156982422	-369.7020874023438	-1153.619262695313	789.9362792968752	-562.2013549804689	-1209.901123046875	784.2751464843752	-599.3397216796876	-1362.327392578125	67.78890228271486	-213.6799926757813	-1169.754638671875	851.165710449219	-167.5915679931641	-1243.572509765625	1173.273803710938	-135.1319274902344	-1218.990844726563	1427.777099609375	-187.2879791259766	-1157.528442382813	990.0393066406252	-43.80907821655274	-1062.862426757813	1460.018920898438	-180.191879272461	-1055.523681640625	721.7845458984376	-27.87017822265626	-1234.20849609375	36.85947799682618	-268.0100708007813	-1405.70703125	64.88915252685548	-260.5650329589844	-1198.877075195313	435.5666503906251	-189.7930297851563	-1334.74072265625	76.80411529541017	-289.3276672363282	-1267.81494140625	30.44017601013184	-185.9568634033203	-1284.879516601563	74.82692718505861	-237.3850402832032	-1316.241577148438	916.2449340820315	-210.5608673095704	-1164.93994140625	1271.746948242188	-103.3375091552735	-1151.925170898438	562.1561279296876	-257.9053344726563	-1153.140014648438	683.8150634765626	-231.4550781250001	-1189.295776367188	555.0303344726564	-122.4754791259766	-1246.501586914063	232.3334197998047	-251.2790832519532	-1287.045532226563	243.1973419189454	-153.6644897460938	-1243.965209960938	42.71555709838868	-222.9726715087891	-1188.636596679688	354.7886047363282	-248.2026519775391	-1062.787475585938	778.8779296875002	-74.21678161621095	-1092.058837890625	769.5025634765627	-19.39280509948731	-1098.123168945313	1042.838256835938	-270.8964843750001	-1287.313232421875	1007.415954589844	-254.787826538086	
93	0.92	-1208.048950195313	1313.644653320313	-249.7989654541016	-1105.01611328125	1231.517822265625	-257.3800048828126	-1224.24658203125	98.37391662597659	-372.1445312500001	-1176.118530273438	858.2856445312502	-374.8774108886719	-1187.693115234375	1448.853271484375	-313.9716491699219	-1257.951416015625	1006.928894042969	-506.830291748047	-1061.412475585938	1471.733154296875	-294.2853393554688	-1152.921875	756.1210327148439	-622.1282348632814	-1099.38671875	52.07527160644533	-341.5383605957032	-1265.27392578125	86.94908142089845	-319.5396423339844	-1087.395751953125	477.4126281738282	-403.1442260742189	-1187.79345703125	101.7509078979492	-303.7201538085938	-1140.93408203125	44.2678451538086	-410.2986450195314	-1146.823486328125	96.8024597167969	-366.3664855957032	-1316.589111328125	910.8372192382815	-301.8057556152344	-1205.90283203125	1269.625366210938	-392.7276916503907	-1056.031860351563	632.6227416992189	-361.6661376953126	-1087.786987304688	694.1187133789064	-358.8968200683594	-1142.44482421875	579.1390380859376	-461.6624450683595	-1139.600708007813	192.090072631836	-367.8401184082032	-1151.457763671875	292.1015930175782	-444.1706848144532	-1117.55615234375	59.74924850463869	-382.2186279296876	-1048.564697265625	396.4208374023439	-369.5035705566407	-1150.491821289063	791.7381591796877	-568.0142822265626	-1207.156494140625	787.3576660156252	-604.9047851562501	-1362.135986328125	68.89739227294923	-213.655258178711	-1161.6318359375	851.688415527344	-168.052734375	-1232.9619140625	1174.350341796875	-135.2588500976563	-1208.163452148438	1428.943237304688	-188.5886688232422	-1144.965209960938	991.0975341796877	-44.06896209716798	-1052.0322265625	1460.76416015625	-181.1657104492188	-1040.479248046875	723.7994995117189	-29.37128829956055	-1233.959594726563	36.87256622314454	-268.1824951171876	-1405.285888671875	66.36978912353517	-260.3648986816407	-1196.07568359375	435.9725341796876	-190.3910369873047	-1334.202026367188	77.67999267578126	-289.4105834960938	-1267.802978515625	30.40140342712403	-186.018539428711	-1284.487670898438	75.30004119873048	-237.3206176757813	-1307.2568359375	917.418151855469	-211.8666076660157	-1153.92626953125	1272.691528320313	-104.0533065795899	-1147.905395507813	562.0746459960939	-258.8055725097657	-1146.233276367188	684.4559936523439	-232.3467407226563	-1184.536254882813	555.5197143554689	-123.3516616821289	-1245.689819335938	232.608871459961	-251.6347351074219	-1285.692016601563	244.1399230957032	-153.8647613525391	-1243.87158203125	42.78266143798829	-222.9529418945313	-1186.353515625	354.9921569824219	-248.570297241211	-1048.499389648438	780.907409667969	-75.53563690185548	-1077.2275390625	771.162536621094	-20.61042785644532	-1088.5712890625	1043.363525390625	-271.5416870117188	-1277.9921875	1008.647705078125	-255.4936981201172	
94	0.93	-1197.444458007813	1314.386108398438	-250.5296020507813	-1094.8076171875	1231.988891601563	-258.2149047851563	-1189.028198242188	90.86215972900392	-375.3201599121094	-1166.201782226563	859.4414672851565	-375.4586486816407	-1176.445068359375	1449.155395507813	-315.4024658203126	-1251.139282226563	1009.478210449219	-509.3052062988282	-1050.146362304688	1471.789794921875	-295.4487304687501	-1150.373657226563	758.6007080078126	-628.3646850585939	-1061.24755859375	53.45934295654298	-343.8275146484376	-1230.064575195313	76.34868621826173	-323.1571960449219	-1076.213500976563	479.2353515625001	-403.2951049804689	-1153.272338867188	96.51222229003909	-306.1365966796876	-1101.797607421875	43.19501876831055	-412.8498840332032	-1111.809814453125	94.56241607666017	-368.6735229492188	-1307.097778320313	911.958190917969	-303.1611022949219	-1195.989379882813	1270.177368164063	-393.2297363281251	-1046.60205078125	634.9661254882814	-360.2490844726563	-1078.488891601563	696.2718505859376	-358.4236755371094	-1130.10400390625	581.4360961914064	-462.3750915527345	-1110.72314453125	189.8885498046875	-369.2202453613282	-1129.405151367188	289.2147827148438	-445.7640380859376	-1079.753051757813	59.9898147583008	-384.3978576660157	-1034.340942382813	399.2825012207032	-369.4039916992188	-1147.0732421875	793.485290527344	-573.8666992187501	-1203.989990234375	790.5458984375002	-610.6291503906251	-1361.982055664063	70.03167724609376	-213.6321105957032	-1153.566040039063	852.1599121093752	-168.3342590332032	-1222.374267578125	1175.338012695313	-135.4840087890625	-1197.355834960938	1429.973999023438	-189.9522094726563	-1132.524169921875	992.0872802734377	-44.29515075683594	-1041.216796875	1461.413452148438	-182.2210235595703	-1025.372924804688	725.8764648437501	-30.79817390441895	-1233.736206054688	36.87975692749024	-268.3186340332032	-1404.919799804688	67.91529846191408	-260.1233215332032	-1193.303955078125	436.4036560058595	-190.8140869140625	-1333.69384765625	78.58448028564455	-289.3871765136719	-1267.771484375	30.37336158752442	-186.0626525878907	-1284.113525390625	75.7675247192383	-237.2504272460938	-1298.24609375	918.470153808594	-213.400619506836	-1142.984985351563	1273.543701171875	-104.8416137695313	-1143.651245117188	561.9441528320314	-259.4618835449219	-1139.387451171875	685.0203857421876	-233.0375213623047	-1179.9658203125	555.9912719726564	-124.0709838867188	-1245.313110351563	232.6217803955079	-252.0773010253907	-1284.27685546875	245.1082611083985	-153.9560241699219	-1243.7705078125	42.85390090942384	-222.8934326171876	-1184.15478515625	355.1273193359376	-248.7969055175782	-1034.19970703125	782.9456176757815	-76.80001068115236	-1062.45263671875	772.7835083007815	-21.79169654846192	-1078.938598632813	1043.78515625	-272.1490173339844	-1268.62060546875	1009.745971679688	-256.3687133789063	
